<?xml version="1.0" encoding="UTF-8" standalone="no"?>
<svg
   xmlns:dc="http://purl.org/dc/elements/1.1/"
   xmlns:cc="http://creativecommons.org/ns#"
   xmlns:rdf="http://www.w3.org/1999/02/22-rdf-syntax-ns#"
   xmlns:svg="http://www.w3.org/2000/svg"
   xmlns="http://www.w3.org/2000/svg"
   viewBox="0 0 614.40002 199.35333"
   height="199.35333"
   width="614.40002"
   xml:space="preserve"
   id="svg2"
   version="1.1"><metadata
     id="metadata8"><rdf:RDF><cc:Work
         rdf:about=""><dc:format>image/svg+xml</dc:format><dc:type
           rdf:resource="http://purl.org/dc/dcmitype/StillImage" /></cc:Work></rdf:RDF></metadata><defs
     id="defs6"><clipPath
       id="clipPath20"
       clipPathUnits="userSpaceOnUse"><path
         id="path18"
         d="M 0,149.515 H 460.8 V 0 H 0 Z" /></clipPath></defs><g
     transform="matrix(1.3333333,0,0,-1.3333333,0,199.35333)"
     id="g10"><path
       id="path12"
       style="fill:#000000;fill-opacity:1;fill-rule:nonzero;stroke:none"
       d="M 0,0.002 H 460.8 V 149.515 H 0 Z" /><g
       id="g14"><g
         clip-path="url(#clipPath20)"
         id="g16"><g
           transform="translate(71.2806,84.4573)"
           id="g22"><path
             id="path24"
             style="fill:#ffffff;fill-opacity:1;fill-rule:evenodd;stroke:none"
             d="m 0,0 h 42.374 v -11.483 c 0,-8.163 -0.054,-16.34 0.035,-24.491 0.017,-1.98 -0.546,-3.602 -1.654,-5.167 -3.217,-4.526 -7.5,-7.772 -12.541,-9.811 -15.108,-6.054 -30.422,-6.386 -45.583,-0.284 -10.73,4.301 -18.024,12.287 -21.851,23.153 -4.681,13.295 -4.461,26.59 1.563,39.504 5.534,11.851 14.932,19.339 27.433,22.81 8.781,2.453 17.726,2.571 26.719,0.937 C 24.457,33.722 33.06,28.745 39.174,22.121 36.881,19.824 34.54,17.536 32.267,15.178 29.966,12.82 27.74,10.391 25.399,7.891 24.375,8.661 23.734,9.146 23.095,9.621 15.689,15.154 7.382,16.754 -1.552,14.846 -8.755,13.294 -13.78,8.875 -16.221,1.931 c -2.725,-7.749 -2.819,-15.629 0.332,-23.319 3.288,-7.976 9.419,-12.347 18.009,-13.117 5.085,-0.486 10.114,-0.06 14.932,1.801 1.611,0.64 3.151,1.469 4.692,2.192 v 11.351 H 0.096 C -0.183,-12.632 -0.023,-6.412 0,0" /></g><g
           transform="translate(251.8029,117.9542)"
           id="g26"><path
             id="path28"
             style="fill:#ffffff;fill-opacity:1;fill-rule:evenodd;stroke:none"
             d="m 0,0 h 24.481 v -32.681 h 31.067 c 0.226,10.832 0,21.626 0.125,32.632 h 24.238 c 0.047,-28.768 0.01,-57.526 0.01,-86.485 H 55.762 v 32.289 H 24.481 V -86.51 L 0,-86.51 Z" /></g><g
           transform="translate(190.5787,75.5352)"
           id="g30"><path
             id="path32"
             style="fill:#ffffff;fill-opacity:1;fill-rule:evenodd;stroke:none"
             d="m 0,0 c 6.41,0 12.496,-0.203 18.556,0.059 4.953,0.236 8.188,3.578 9.006,8.696 0.936,6.043 -2.506,12.786 -10.321,12.786 C 11.808,21.541 0.866,21.516 0,21.516 Z m 0.349,-44.044 h -24.971 v 86.57 H 19.812 C 27.717,42.407 35.12,40.263 41.377,35.143 48.642,29.207 51.97,21.339 52.231,12.096 52.431,4.892 50.94,-1.837 46.632,-7.786 42.19,-13.959 36.069,-17.62 28.805,-19.281 c -3.686,-0.851 -7.53,-1.218 -11.322,-1.361 -5.67,-0.225 -11.351,-0.059 -17.134,-0.059 v -23.343" /></g><g
           transform="translate(384.9604,88.4616)"
           id="g34"><path
             id="path36"
             style="fill:#ffffff;fill-opacity:1;fill-rule:evenodd;stroke:none"
             d="M 0,0 C 6.432,10.191 12.534,19.859 18.675,29.588 H 46.164 47.04 C 46.774,29.209 23.317,-5.641 11.931,-22.526 V -56.934 H -12.55 v 34.182 c -11.155,17.467 -22.347,34.637 -33.591,52.315 h 28.243 C -12.051,19.918 -6.18,10.214 0,0" /></g><g
           transform="translate(150.1438,31.3373)"
           id="g38"><path
             id="path40"
             style="fill:#ffffff;fill-opacity:1;fill-rule:evenodd;stroke:none"
             d="M 0,0 H -24.403 V 86.819 H -0.006 C 0.029,57.906 0.005,29.148 0,0" /></g></g></g></g></svg>